<svg width="64" height="64" viewBox="0 0 64 64" xmlns="http://www.w3.org/2000/svg">
  <defs>
    <linearGradient id="favicon-gradient" x1="0%" y1="0%" x2="100%" y2="100%">
      <stop offset="0%" stop-color="#1F4BFF" />
      <stop offset="100%" stop-color="#00C4FF" />
    </linearGradient>
  </defs>
  <rect x="4" y="4" width="56" height="56" rx="16" fill="#0B1324" />
  <rect x="4" y="4" width="56" height="56" rx="16" fill="url(#favicon-gradient)" opacity="0.2" />
  <path
    d="M18 19h8.6c6.2 0 10.8 4.6 10.8 10.4S32.8 40 26.6 40h-5V45H18V19Zm6.8 15.3h3.2c3 0 5.2-2.1 5.2-5 0-3-2.2-4.9-5.2-4.9h-3.2v9.9Zm20.9-15.3 6 18 6-18h5.6L53.6 45h-5l-4.7-14-4.7 14h-5L33 19h5.8l5.8 18 6.1-18H45.7Z"
    fill="#F5F7FF"
  />
</svg>
