<svg width="96" height="96" viewBox="0 0 96 96" xmlns="http://www.w3.org/2000/svg">
  <defs>
    <linearGradient id="gw-gradient" x1="5%" y1="0%" x2="95%" y2="100%">
      <stop offset="0%" stop-color="#1F4BFF" />
      <stop offset="100%" stop-color="#00C4FF" />
    </linearGradient>
  </defs>
  <rect x="4" y="4" width="88" height="88" rx="24" fill="#0B1324" />
  <rect x="4" y="4" width="88" height="88" rx="24" fill="url(#gw-gradient)" opacity="0.18" />
  <path
    d="M27 28h12.5c9 0 15.8 6.8 15.8 15.4 0 8.6-6.8 15.2-15.8 15.2h-8.6V68H27V28Zm9.8 22.6h5.1c4.7 0 7.9-3.4 7.9-7.6 0-4.4-3.3-7.4-7.9-7.4h-5.1v15Zm36.1-22.6 9.1 27.1 9.1-27.1h8.6L88 68h-8l-7.2-21.4L65.6 68h-8L48.2 28h8.8l8.9 27.1L74 28h8z"
    fill="#F5F7FF"
  />
</svg>
